<svg xmlns="http://www.w3.org/2000/svg" width="210" height="38" fill="none"><g clip-path="url(#clip0_3910_135)" fill="#4C0677"><path d="M.04 15.642c-.093 1.704 0 3.436 0 5.125V37.12h9.168V22.138c0-4.662-.033-8.817 0-9.67.163-4.042 1.27-6.684 3.338-8.844h-.478a12.133 12.133 0 00-10.7 6.516C.474 11.877.143 13.742.04 15.64"/><path d="M21.065 0a11.557 11.557 0 00-8.551 3.637c6.832 0 11.255 4.651 11.501 12.06.058 1.699.075 10.797.075 10.797V37.12h9.176V22.752c0-4.341.035-8.103-.268-10.69C32.153 4.828 27.734 0 21.065 0m48.341 22.356c.093-1.704 0-3.436 0-5.125V.88h-9.17v14.982c0 4.662.032 8.817 0 9.67-.163 4.042-1.271 6.683-3.339 8.844h.479a12.133 12.133 0 0010.7-6.516c.894-1.737 1.225-3.602 1.328-5.5"/><path d="M48.378 38a11.557 11.557 0 008.544-3.637c-6.832 0-11.255-4.651-11.501-12.06-.058-1.699-.08-5.917-.08-10.804V.872h-9.163v14.369c0 4.34-.035 8.102.268 10.689.845 7.235 5.263 12.063 11.932 12.063M84.571.89H78.52v36.243h6.052V.89zm19.254 10.423c-3.364 0-6.053 1.657-7.657 4.512V11.83h-5.744v25.313h5.744V23.42c0-3.985 2.484-6.571 6.266-6.571 3.671 0 6.105 2.586 6.105 6.571v13.722h5.794V22.707c0-7.038-4.035-11.384-10.503-11.384m38.175.509h-6.313l-6.78 17.592-6.829-17.592h-6.261l10.607 25.3h4.967l10.609-25.3zm6.614 9.622c.827-3.103 3.311-4.915 6.727-4.915 3.466 0 5.897 2.017 6.413 4.915h-13.14zm19.404 2.483c0-7.398-5.539-12.624-12.366-12.624-7.296 0-13.033 5.692-13.033 13.033 0 7.556 5.744 13.298 13.143 13.298 6.208 0 11.028-3.509 11.95-8.847h-5.795c-.516 2.173-2.947 3.622-6.052 3.622-4.088 0-6.674-2.329-7.399-6.053h19.404c.109-.806.161-1.62.155-2.434m13.632 13.712c5.586 0 9.774-3.413 9.774-7.967 0-10.557-14.694-5.847-14.694-10.97 0-1.604 1.604-2.587 3.88-2.587 2.639 0 4.398 1.396 4.656 3.106h5.795c-.569-5.123-5.123-7.918-10.349-7.918-5.899 0-9.571 3.364-9.571 7.77 0 9.624 14.644 5.225 14.644 10.659 0 1.754-1.657 2.947-4.451 2.947-2.845 0-5.013-1.448-5.226-3.671h-5.536c.516 5.43 4.865 8.639 11.073 8.639m28.213-20.336V11.83h-6.629V5.063h-5.79v6.767h-4.812v5.486h4.812v10.303c0 6.416 3.727 9.832 9.313 9.832a15.517 15.517 0 003.106-.31v-5.339a7.343 7.343 0 01-1.862.208c-2.795 0-4.762-1.293-4.762-4.511V17.316h6.624z"/></g><defs><clipPath id="clip0_3910_135"><path fill="#fff" d="M0 0h209.87v38H0z"/></clipPath></defs></svg>